<?xml version="1.0" encoding="utf-8"?>
<!-- Svg Vector Icons : http://www.onlinewebfonts.com/icon -->
<!DOCTYPE svg PUBLIC "-//W3C//DTD SVG 1.1//EN" "http://www.w3.org/Graphics/SVG/1.1/DTD/svg11.dtd">
<svg version="1.1" xmlns="http://www.w3.org/2000/svg" xmlns:xlink="http://www.w3.org/1999/xlink" x="0px" y="0px" viewBox="0 0 256 256" enable-background="new 0 0 256 256" xml:space="preserve">
<metadata> Svg Vector Icons : http://www.onlinewebfonts.com/icon </metadata>
<g><g><path fill="#000000" d="M19.8,246c1.9,0,3.8-0.4,5.7-1.1l53.9-24.1c4.5-1.9,10.9-6.4,14.3-9.8L241.5,62.8c3-2.6,4.5-6.4,4.5-10.5s-1.5-7.9-4.5-10.5l-27.2-27.1c-3-3-6.8-4.5-10.5-4.5c-3.8,0-7.9,1.5-10.5,4.5L41.7,166.1c-3.8,3.8-7.9,10.2-9.8,14.7l-20.7,50.1c-2.3,5.3-0.7,9.1,0.4,10.9C13.4,244.5,16.4,246,19.8,246z M83.1,200L83.1,200L56,172.9L181.2,47.7l27.1,27.1L83.1,200z M203.8,25.1l27.1,27.1l-12.1,12.1l-27.1-27.1L203.8,25.1z M45.8,186.4c0.4-0.4,0.4-1.1,0.7-1.9L70,207.9L29.6,226L45.8,186.4z"/></g></g>
</svg>